<svg width="429.00000000000006" height="26.272432706195932" viewBox="0 0 370.32179387583477 22.678914706854613" class="looka-1j8o68f"><defs id="SvgjsDefs1496"></defs><g id="SvgjsG1497" featurekey="nameLeftFeature-0" transform="matrix(0.873842397872584,0,0,0.873842397872584,-0.5592602680094837,-0.03333199507221085)" fill="#521262"><path d="M6.44 5.76 c2.04 0 5.04 0.38 5.4 0.5 c0.24 1.24 0.16 2.36 -0.36 3.5 c-1.18 -0.18 -3.36 -0.38 -4.7 -0.38 c-0.74 0 -1.12 0.08 -1.12 0.6 c0 0.54 0.3 0.56 0.98 0.86 l2.02 0.86 c2.46 1.06 3.76 1.96 3.76 4.64 c0 3.6 -2.38 4.12 -6.44 4.1 c-1.42 0 -2.36 0 -5.14 -0.44 c-0.24 -1.26 -0.14 -2.36 0.34 -3.5 c1.68 0.3 4.22 0.38 5.26 0.3 c0.46 -0.06 1 -0.1 1 -0.74 c0 -0.3 -0.18 -0.44 -0.82 -0.7 l-2.36 -0.96 c-2.4 -0.98 -3.62 -2.32 -3.62 -4.46 c0 -3.4 1.96 -4.18 5.8 -4.18 z M23.732 6.199999999999999 c0.9 -0.32 3.82 -0.32 4.76 0 l0 13.8 c-0.94 0.32 -3.86 0.32 -4.76 0 l0 -5.8 l-2.92 0 l0 5.8 c-0.92 0.32 -3.86 0.32 -4.76 0 l0 -13.8 c0.9 -0.32 3.84 -0.32 4.76 0 l0 5.14 l2.92 0 l0 -5.14 z M43.944 15.86 l1.42 4.14 c-1.24 0.36 -3.84 0.36 -5.1 0 l-1.58 -4.88 l-1.12 0 l0 4.88 c-0.92 0.32 -3.86 0.32 -4.76 0 l0 -13.8 c1.88 -0.4 3.66 -0.44 4.62 -0.44 c4.26 0 7.28 0.64 7.28 4.8 c0 1.7 -0.82 2.82 -2.72 3.44 l0 0.12 c0.82 0.16 1.62 0.68 1.96 1.74 z M37.944 12.5 c1.3 0 1.66 -0.24 1.66 -1.56 c0 -1.36 -0.36 -1.6 -1.66 -1.6 l-0.38 0 l0 3.16 l0.38 0 z M53.496 16.38 l5.26 0 c0.28 0.64 0.28 2.96 0 3.62 l-10.02 0 l0 -13.8 l10.02 0 c0.28 0.66 0.28 2.98 0 3.62 l-5.26 0 l0 1.78 l4.2 0 c0.28 0.46 0.28 2.16 0 2.6 l-4.2 0 l0 2.18 z M67.548 16.38 l5.26 0 c0.28 0.64 0.28 2.96 0 3.62 l-10.02 0 l0 -13.8 l10.02 0 c0.28 0.66 0.28 2.98 0 3.62 l-5.26 0 l0 1.78 l4.2 0 c0.28 0.46 0.28 2.16 0 2.6 l-4.2 0 l0 2.18 z M94.49199999999999 15.86 l1.42 4.14 c-1.24 0.36 -3.84 0.36 -5.1 0 l-1.58 -4.88 l-1.12 0 l0 4.88 c-0.92 0.32 -3.86 0.32 -4.76 0 l0 -13.8 c1.88 -0.4 3.66 -0.44 4.62 -0.44 c4.26 0 7.28 0.64 7.28 4.8 c0 1.7 -0.82 2.82 -2.72 3.44 l0 0.12 c0.82 0.16 1.62 0.68 1.96 1.74 z M88.49199999999999 12.5 c1.3 0 1.66 -0.24 1.66 -1.56 c0 -1.36 -0.36 -1.6 -1.66 -1.6 l-0.38 0 l0 3.16 l0.38 0 z M108.664 6.199999999999999 l4 13.8 c-0.94 0.34 -4.08 0.34 -5.18 0 l-0.58 -2.9 l-3.36 0 l-0.58 2.9 c-1.08 0.32 -4.24 0.32 -5.14 0 l4.02 -13.8 c1.32 -0.36 5.48 -0.36 6.82 0 z M104.144 14.24 l2.2 0 l-0.96 -4.76 l-0.28 0 z M120.916 5.76 c5.86 0 7.52 2.36 7.52 7.34 c0 4.96 -1.66 7.34 -7.46 7.34 c-1.42 0 -3.84 -0.14 -5.46 -0.44 l0 -13.8 c1.72 -0.32 4.08 -0.44 5.4 -0.44 z M120.79599999999999 16.84 c2.1 0 2.66 -0.62 2.66 -3.74 s-0.56 -3.76 -2.66 -3.74 l-0.52 0 l0 7.48 l0.52 0 z M139.928 6.199999999999999 c0.9 -0.32 3.82 -0.32 4.76 0 l0 13.8 c-0.94 0.32 -3.86 0.32 -4.76 0 l0 -5.8 l-2.92 0 l0 5.8 c-0.92 0.32 -3.86 0.32 -4.76 0 l0 -13.8 c0.9 -0.32 3.84 -0.32 4.76 0 l0 5.14 l2.92 0 l0 -5.14 z M158.38 6.199999999999999 l4 13.8 c-0.94 0.34 -4.08 0.34 -5.18 0 l-0.58 -2.9 l-3.36 0 l-0.58 2.9 c-1.08 0.32 -4.24 0.32 -5.14 0 l4.02 -13.8 c1.32 -0.36 5.48 -0.36 6.82 0 z M153.85999999999999 14.24 l2.2 0 l-0.96 -4.76 l-0.28 0 z M177.924 11.84 l5.46 0 l0 7.84 c-0.46 0.16 -2.94 0.76 -5.6 0.76 c-5.08 0 -6.66 -2.2 -6.66 -7.42 c0 -4.88 1.42 -7.26 6.58 -7.26 c1.82 0 4.18 0.28 5.16 0.6 c0.28 0.86 0 2.68 -0.44 3.34 c-0.48 -0.04 -2.86 -0.34 -4 -0.34 c-1.92 0 -2.28 0.66 -2.26 3.8 c0.02 3.24 0.48 3.68 2.5 3.68 l0.44 0 l0 -2.14 l-1.18 0 c-0.28 -0.5 -0.28 -2.32 0 -2.86 z M193.516 5.76 c4.96 0 6.66 1.74 6.7 7.34 s-1.66 7.34 -6.7 7.34 s-6.74 -1.74 -6.7 -7.34 s1.74 -7.34 6.7 -7.34 z M193.516 9.36 c-1.34 -0.02 -1.6 0.7 -1.66 3.74 c-0.06 2.98 0.16 3.74 1.66 3.74 c1.44 0 1.66 -0.76 1.66 -3.74 c0 -2.96 -0.26 -3.72 -1.66 -3.74 z M216.908 6.199999999999999 l-3.7 13.8 c-1.3 0.36 -5.46 0.36 -6.8 0 l-3.72 -13.8 c0.92 -0.32 4.08 -0.32 5.14 0 l1.84 10.56 l0.28 0 l1.82 -10.56 c1.06 -0.34 4.22 -0.34 5.14 0 z M224.76 6.199999999999999 l0 13.8 c-0.92 0.32 -3.86 0.32 -4.76 0 l0 -13.8 c0.9 -0.32 3.84 -0.32 4.76 0 z M238.392 6.199999999999999 c0.86 -0.32 3.58 -0.32 4.46 0 l0 13.8 c-1.64 0.34 -4.52 0.34 -6.18 0 l-1.88 -5.08 l-1.12 -3.84 l-0.18 0 l0 8.92 c-0.88 0.32 -3.6 0.32 -4.48 0 l0 -13.8 c1.66 -0.32 4.5 -0.32 6.16 0 l2 5.32 l1.04 3.6 l0.18 0 l0 -8.92 z M252.524 5.76 c5.86 0 7.52 2.36 7.52 7.34 c0 4.96 -1.66 7.34 -7.46 7.34 c-1.42 0 -3.84 -0.14 -5.46 -0.44 l0 -13.8 c1.72 -0.32 4.08 -0.44 5.4 -0.44 z M252.404 16.84 c2.1 0 2.66 -0.62 2.66 -3.74 s-0.56 -3.76 -2.66 -3.74 l-0.52 0 l0 7.48 l0.52 0 z"></path></g><g id="SvgjsG1498" featurekey="inlineSymbolFeature-0" transform="matrix(0.687237535768585,0,0,0.687237535768585,240.81493885997483,-2.748873297332049)" fill="#521262"><title xmlns="http://www.w3.org/2000/svg">necklace_jewelry_accessory_fashion_woman</title><desc xmlns="http://www.w3.org/2000/svg">Created with Sketch.</desc><g xmlns="http://www.w3.org/2000/svg" stroke="none" stroke-width="1" fill="none" fill-rule="evenodd" xmlns:sketch="http://www.bohemiancoding.com/sketch/ns" sketch:type="MSPage"><path d="M20.4558483,18.5521822 C20.6352164,18.1319112 20.8799026,17.4771875 20.9673146,16.8594474 L20.9673146,16.8594474 C21.5904727,16.6827079 22.2322333,16.3421537 22.8922433,15.8540804 C24.3337392,14.7881033 25.8445426,13.0355946 27.3850545,10.78218 C28.2918555,9.4557386 29.1533069,8.03674971 29.9422193,6.61798903 C30.2182783,6.12153117 30.4656605,5.6603674 30.6808834,5.24616404 C30.8104822,4.99674703 30.9008856,4.81773965 30.9485922,4.720828 C31.0705522,4.47307735 30.9685786,4.1733677 30.720828,4.05140776 C30.4730773,3.92944783 30.1733677,4.03142135 30.0514078,4.279172 C30.0068139,4.36976035 29.919669,4.54231547 29.7935238,4.78508596 C29.5825067,5.1911951 29.3395582,5.64409383 29.0682483,6.13201097 C28.2932492,7.52575029 27.447265,8.9192614 26.5595256,10.21782 C25.0766582,12.3869142 23.6305375,14.0643919 22.2976634,15.0500439 C21.8196855,15.4035056 21.3661089,15.6598629 20.940584,15.8165388 C20.8013404,15.1989511 20.4327753,15 20,15 C19.5672247,15 19.1986596,15.1989511 19.059416,15.8165388 C18.6338911,15.6598629 18.1803145,15.4035056 17.7023366,15.0500439 C16.3694625,14.0643919 14.9233418,12.3869142 13.4404744,10.21782 C12.552735,8.9192614 11.7067508,7.52575029 10.9317517,6.13201097 C10.6604418,5.64409383 10.4174933,5.1911951 10.2064762,4.78508596 C10.080331,4.54231547 9.99318606,4.36976035 9.94859224,4.279172 C9.8266323,4.03142135 9.52692265,3.92944783 9.279172,4.05140776 C9.03142135,4.1733677 8.92944783,4.47307735 9.05140776,4.720828 C9.09911435,4.81773965 9.18951784,4.99674703 9.31911662,5.24616404 C9.53433951,5.6603674 9.78172166,6.12153117 10.0577807,6.61798903 C10.8466931,8.03674971 11.7081445,9.4557386 12.6149455,10.78218 C14.1554574,13.0355946 15.6662608,14.7881033 17.1077567,15.8540804 C17.765609,16.3405581 18.4053311,16.6804797 19.0265732,16.8577088 C19.1058381,17.5211076 19.3464092,18.1526517 19.5285553,18.5558843 C18.6514899,18.7678163 18,19.5578264 18,20.5 C18,21.3415625 18.5197787,22.0617241 19.2558153,22.3569641 C17.8625875,24.0253343 15,27.7837434 15,30.5 C15,34.0898509 17.2385763,36 20,36 C22.7614237,36 25,34.0898509 25,30.5 C25,27.7837434 22.1374125,24.0253343 20.7441847,22.3569641 C21.4802213,22.0617241 22,21.3415625 22,20.5 C22,19.5522501 21.3407756,18.7584703 20.4558483,18.5521822 Z M19,20.5 C19,19.9477153 19.4477153,19.5 20,19.5 C20.5522847,19.5 21,19.9477153 21,20.5 C21,21.0522847 20.5522847,21.5 20,21.5 C19.4477153,21.5 19,21.0522847 19,20.5 Z" fill="#521262" sketch:type="MSShapeGroup"></path></g></g><g id="SvgjsG1499" featurekey="nameRightFeature-0" transform="matrix(0.6926823991746948,0,0,0.6926823991746948,277.74617807594916,1.0101495525080457)" fill="#521262"><path d="M12.572 6.199999999999999 l0 11.56 c0 4.66 -1.62 6.04 -4.84 6.52 c-1.02 -0.02 -1.94 -2.42 -1.46 -3.5 c1.04 -0.36 1.54 -0.84 1.54 -2.48 l0 -12.1 c1.18 -0.36 3.6 -0.36 4.76 0 z M21.644000000000002 16.38 l5.26 0 c0.28 0.64 0.28 2.96 0 3.62 l-10.02 0 l0 -13.8 l10.02 0 c0.28 0.66 0.28 2.98 0 3.62 l-5.26 0 l0 1.78 l4.2 0 c0.28 0.46 0.28 2.16 0 2.6 l-4.2 0 l0 2.18 z M49.436 6.199999999999999 l-1.94 13.8 c-1.58 0.38 -4.72 0.38 -6.3 0 l-1.04 -5.96 l-0.46 -4.62 l-0.16 0 l-0.42 4.6 l-0.94 5.98 c-1.56 0.38 -4.86 0.38 -6.42 0 l-1.96 -13.8 c1.12 -0.36 3.6 -0.36 4.9 0 l0.52 10.3 l0.3 0 l0.22 -2.54 l1.16 -7.5 c1.26 -0.38 4.2 -0.38 5.46 0 l1.16 7.54 l0.24 2.5 l0.28 0 l0.52 -10.3 c1.28 -0.36 3.76 -0.36 4.88 0 z M57.388 16.38 l5.26 0 c0.28 0.64 0.28 2.96 0 3.62 l-10.02 0 l0 -13.8 l10.02 0 c0.28 0.66 0.28 2.98 0 3.62 l-5.26 0 l0 1.78 l4.2 0 c0.28 0.46 0.28 2.16 0 2.6 l-4.2 0 l0 2.18 z M76.08 16.38 c0.24 0.64 0.24 2.96 0 3.62 l-9.4 0 l0 -13.82 c0.9 -0.32 3.84 -0.32 4.76 0 l0 10.2 l4.64 0 z M88.952 16.38 c0.24 0.64 0.24 2.96 0 3.62 l-9.4 0 l0 -13.82 c0.9 -0.32 3.84 -0.32 4.76 0 l0 10.2 l4.64 0 z M97.184 16.38 l5.26 0 c0.28 0.64 0.28 2.96 0 3.62 l-10.02 0 l0 -13.8 l10.02 0 c0.28 0.66 0.28 2.98 0 3.62 l-5.26 0 l0 1.78 l4.2 0 c0.28 0.46 0.28 2.16 0 2.6 l-4.2 0 l0 2.18 z M117.61599999999999 15.86 l1.42 4.14 c-1.24 0.36 -3.84 0.36 -5.1 0 l-1.58 -4.88 l-1.12 0 l0 4.88 c-0.92 0.32 -3.86 0.32 -4.76 0 l0 -13.8 c1.88 -0.4 3.66 -0.44 4.62 -0.44 c4.26 0 7.28 0.64 7.28 4.8 c0 1.7 -0.82 2.82 -2.72 3.44 l0 0.12 c0.82 0.16 1.62 0.68 1.96 1.74 z M111.61599999999999 12.5 c1.3 0 1.66 -0.24 1.66 -1.56 c0 -1.36 -0.36 -1.6 -1.66 -1.6 l-0.38 0 l0 3.16 l0.38 0 z M127.66799999999999 5.76 c2.04 0 5.04 0.38 5.4 0.5 c0.24 1.24 0.16 2.36 -0.36 3.5 c-1.18 -0.18 -3.36 -0.38 -4.7 -0.38 c-0.74 0 -1.12 0.08 -1.12 0.6 c0 0.54 0.3 0.56 0.98 0.86 l2.02 0.86 c2.46 1.06 3.76 1.96 3.76 4.64 c0 3.6 -2.38 4.12 -6.44 4.1 c-1.42 0 -2.36 0 -5.14 -0.44 c-0.24 -1.26 -0.14 -2.36 0.34 -3.5 c1.68 0.3 4.22 0.38 5.26 0.3 c0.46 -0.06 1 -0.1 1 -0.74 c0 -0.3 -0.18 -0.44 -0.82 -0.7 l-2.36 -0.96 c-2.4 -0.98 -3.62 -2.32 -3.62 -4.46 c0 -3.4 1.96 -4.18 5.8 -4.18 z"></path></g></svg>
